{"asset":{"version":"2.0","generator":"THREE.GLTFExporter"},"scenes":[{"nodes":[0],"name":"AuxScene"}],"scene":0,"nodes":[{"mesh":0}],"bufferViews":[{"buffer":0,"byteOffset":0,"byteLength":42240,"target":34962,"byteStride":12},{"buffer":0,"byteOffset":42240,"byteLength":42240,"target":34962,"byteStride":12},{"buffer":0,"byteOffset":84480,"byteLength":42240,"target":34962,"byteStride":12},{"buffer":0,"byteOffset":126720,"byteLength":23256,"target":34963}],"buffers":[{"byteLength":149976,"uri":"data:application/octet-stream;base64,"}],"accessors":[{"bufferView":0,"componentType":5126,"count":3520,"max":[0.3499999940395355,0.5,0.3499999940395355],"min":[-0.3499999940395355,-0.5,-0.3499999940395355],"type":"VEC3"},{"bufferView":1,"componentType":5126,"count":3520,"max":[1,1,1],"min":[-1,-1,-1],"type":"VEC3"},{"bufferView":2,"componentType":5126,"count":3520,"max":[1,1,1],"min":[0,0,0],"type":"VEC3"},{"bufferView":3,"componentType":5125,"count":5814,"max":[3519],"min":[0],"type":"SCALAR"}],"materials":[{"pbrMetallicRoughness":{"metallicFactor":1,"roughnessFactor":1}}],"meshes":[{"primitives":[{"mode":4,"attributes":{"POSITION":0,"NORMAL":1,"COLOR_0":2},"indices":3,"material":0}]}]}